<svg xmlns="http://www.w3.org/2000/svg" xmlns:xlink="http://www.w3.org/1999/xlink" width="1080" zoomAndPan="magnify" viewBox="0 0 810 809.999993" height="1080" preserveAspectRatio="xMidYMid meet" version="1.0"><defs><clipPath id="bf5aae5cf8"><path d="M 191 447 L 790 447 L 790 756.75 L 191 756.75 Z M 191 447 " clip-rule="nonzero"/></clipPath><clipPath id="3dc6d24105"><path d="M 163 81 L 790.5 81 L 790.5 396 L 163 396 Z M 163 81 " clip-rule="nonzero"/></clipPath></defs><g clip-path="url(#bf5aae5cf8)"><path fill="#4a4ec6" d="M 482.941406 614.347656 C 391.972656 614.347656 328.078125 550.242188 321.308594 447.210938 L 191.410156 577.113281 C 241.339844 687.335938 348.601562 756.515625 484.632812 756.515625 C 620.667969 756.515625 753.316406 671.257812 789.917969 531.835938 L 617.496094 531.835938 C 590.839844 586.84375 542.390625 614.347656 482.730469 614.347656 Z M 482.941406 614.347656 " fill-opacity="1" fill-rule="nonzero"/></g><path fill="#4a4ec6" d="M 324.484375 383.957031 L 179.140625 455.039062 L 0.371094 261.460938 L 175.332031 533.105469 Z M 324.484375 383.957031 " fill-opacity="1" fill-rule="nonzero"/><g clip-path="url(#3dc6d24105)"><path fill="#5156e3" d="M 331.464844 336.144531 C 353.679688 265.90625 409.53125 224.015625 482.941406 224.015625 C 556.355469 224.015625 591.050781 251.519531 617.707031 306.523438 L 790.128906 306.523438 C 753.53125 167.105469 637.804688 81 484.847656 81 C 331.886719 81 181.679688 197.148438 163.484375 367.03125 L 193.527344 395.804688 Z M 331.464844 336.144531 " fill-opacity="1" fill-rule="nonzero"/></g></svg>